<?xml version="1.0" encoding="UTF-8" standalone="no"?>
<!-- Created with Inkscape (http://www.inkscape.org/) -->

<svg
   xmlns:dc="http://purl.org/dc/elements/1.1/"
   xmlns:cc="http://creativecommons.org/ns#"
   xmlns:rdf="http://www.w3.org/1999/02/22-rdf-syntax-ns#"
   xmlns:svg="http://www.w3.org/2000/svg"
   xmlns="http://www.w3.org/2000/svg"
   xmlns:xlink="http://www.w3.org/1999/xlink"
   xmlns:sodipodi="http://sodipodi.sourceforge.net/DTD/sodipodi-0.dtd"
   xmlns:inkscape="http://www.inkscape.org/namespaces/inkscape"
   width="501"
   height="207.0625"
   id="svg2"
   version="1.1"
   inkscape:version="0.48.4 r9939"
   sodipodi:docname="lensfun.svg"
   inkscape:export-filename="/home/daseeb/Bilder/Grafik/lensfun.png"
   inkscape:export-xdpi="36.087364"
   inkscape:export-ydpi="36.087364">
  <defs
     id="defs4">
    <linearGradient
       id="linearGradient3765">
      <stop
         style="stop-color:#64afff;stop-opacity:1;"
         offset="0"
         id="stop3767" />
      <stop
         style="stop-color:#64afff;stop-opacity:0;"
         offset="1"
         id="stop3769" />
    </linearGradient>
    <radialGradient
       inkscape:collect="always"
       xlink:href="#linearGradient3765"
       id="radialGradient3771"
       cx="221.84071"
       cy="230.18204"
       fx="221.84071"
       fy="230.18204"
       r="108.7914"
       gradientTransform="matrix(0.7842298,0.78787746,-0.66544114,0.66853612,201.03921,-98.570292)"
       gradientUnits="userSpaceOnUse" />
    <filter
       inkscape:collect="always"
       id="filter3992"
       x="-0.17623094"
       width="1.3524619"
       y="-0.20459349"
       height="1.409187"
       color-interpolation-filters="sRGB">
      <feGaussianBlur
         inkscape:collect="always"
         stdDeviation="17.499631"
         id="feGaussianBlur3994" />
    </filter>
    <radialGradient
       inkscape:collect="always"
       xlink:href="#linearGradient3765"
       id="radialGradient4031"
       gradientUnits="userSpaceOnUse"
       gradientTransform="matrix(0.7842298,0.78787746,-0.66544114,0.66853612,201.03921,-98.570292)"
       cx="221.84071"
       cy="230.18204"
       fx="221.84071"
       fy="230.18204"
       r="108.7914" />
    <radialGradient
       inkscape:collect="always"
       xlink:href="#linearGradient3765"
       id="radialGradient4064"
       gradientUnits="userSpaceOnUse"
       gradientTransform="matrix(0.7842298,0.78787746,-0.66544114,0.66853612,201.03921,-98.570292)"
       cx="221.84071"
       cy="230.18204"
       fx="221.84071"
       fy="230.18204"
       r="108.7914" />
  </defs>
  <sodipodi:namedview
     id="base"
     pagecolor="#ffffff"
     bordercolor="#666666"
     borderopacity="1.0"
     inkscape:pageopacity="0.0"
     inkscape:pageshadow="2"
     inkscape:zoom="0.98994949"
     inkscape:cx="189.38048"
     inkscape:cy="201.37147"
     inkscape:document-units="px"
     inkscape:current-layer="layer1"
     showgrid="false"
     inkscape:snap-grids="false"
     inkscape:window-width="1920"
     inkscape:window-height="1120"
     inkscape:window-x="0"
     inkscape:window-y="25"
     inkscape:window-maximized="1"
     fit-margin-top="0"
     fit-margin-left="0"
     fit-margin-right="0"
     fit-margin-bottom="0">
    <inkscape:grid
       type="xygrid"
       id="grid2989"
       empspacing="5"
       visible="true"
       enabled="true"
       snapvisiblegridlinesonly="true"
       originx="-174.78125px"
       originy="-810.64343px" />
  </sodipodi:namedview>
  <metadata
     id="metadata7">
    <rdf:RDF>
      <cc:Work
         rdf:about="">
        <dc:format>image/svg+xml</dc:format>
        <dc:type
           rdf:resource="http://purl.org/dc/dcmitype/StillImage" />
        <dc:title />
      </cc:Work>
    </rdf:RDF>
  </metadata>
  <g
     inkscape:label="Ebene 1"
     inkscape:groupmode="layer"
     id="layer1"
     transform="translate(-174.78125,-34.65625)">
    <rect
       style="font-size:79.87895966px;font-style:italic;font-variant:normal;font-weight:normal;font-stretch:normal;line-height:125%;letter-spacing:1.66414499px;word-spacing:0px;fill:#ffffff;fill-opacity:1;stroke:#cccccc;stroke-width:2;stroke-miterlimit:4;stroke-opacity:1;stroke-dasharray:none;font-family:Verdana;-inkscape-font-specification:Verdana Italic"
       id="rect3032"
       width="499.01532"
       height="205.06097"
       x="175.76656"
       y="35.643639"
       inkscape:export-filename="/home/daseeb/Bilder/lensfun.png"
       inkscape:export-xdpi="150"
       inkscape:export-ydpi="150" />
    <g
       id="g3817"
       transform="translate(588.57143,134.28572)">
      <path
         sodipodi:nodetypes="ccccc"
         inkscape:connector-curvature="0"
         id="path3775"
         d="m 290,432.36218 0,300 320,0 0,-300 z"
         style="fill:none;stroke:#000000;stroke-width:1px;stroke-linecap:butt;stroke-linejoin:miter;stroke-opacity:1" />
      <path
         sodipodi:nodetypes="cc"
         inkscape:connector-curvature="0"
         id="path3777"
         d="m 330,432.36218 0,300"
         style="fill:none;stroke:#000000;stroke-width:1px;stroke-linecap:butt;stroke-linejoin:miter;stroke-opacity:1" />
      <path
         sodipodi:nodetypes="cc"
         inkscape:connector-curvature="0"
         id="path3779"
         d="m 370,432.36218 0,300"
         style="fill:none;stroke:#000000;stroke-width:1px;stroke-linecap:butt;stroke-linejoin:miter;stroke-opacity:1" />
      <path
         sodipodi:nodetypes="cc"
         inkscape:connector-curvature="0"
         id="path3781"
         d="m 410,432.36218 0,300"
         style="fill:none;stroke:#000000;stroke-width:1px;stroke-linecap:butt;stroke-linejoin:miter;stroke-opacity:1" />
      <path
         sodipodi:nodetypes="cc"
         inkscape:connector-curvature="0"
         id="path3783"
         d="m 450,432.36218 0,300"
         style="fill:none;stroke:#000000;stroke-width:1px;stroke-linecap:butt;stroke-linejoin:miter;stroke-opacity:1" />
      <path
         sodipodi:nodetypes="cc"
         inkscape:connector-curvature="0"
         id="path3785"
         d="m 490,432.36218 0,300"
         style="fill:none;stroke:#000000;stroke-width:1px;stroke-linecap:butt;stroke-linejoin:miter;stroke-opacity:1" />
      <path
         sodipodi:nodetypes="cc"
         inkscape:connector-curvature="0"
         id="path3787"
         d="m 530,432.36218 0,300"
         style="fill:none;stroke:#000000;stroke-width:1px;stroke-linecap:butt;stroke-linejoin:miter;stroke-opacity:1" />
      <path
         sodipodi:nodetypes="cc"
         inkscape:connector-curvature="0"
         id="path3789"
         d="m 570,432.36218 0,300"
         style="fill:none;stroke:#000000;stroke-width:1px;stroke-linecap:butt;stroke-linejoin:miter;stroke-opacity:1" />
      <path
         style="fill:none;stroke:#000000;stroke-width:1.01600099px;stroke-linecap:butt;stroke-linejoin:miter;stroke-opacity:1"
         d="m 610,472.36218 -320,0"
         id="path3791"
         inkscape:connector-curvature="0" />
      <path
         inkscape:connector-curvature="0"
         id="path3805"
         d="m 610,512.36218 -320,0"
         style="fill:none;stroke:#000000;stroke-width:1.01600099px;stroke-linecap:butt;stroke-linejoin:miter;stroke-opacity:1" />
      <path
         style="fill:none;stroke:#000000;stroke-width:1.01600099px;stroke-linecap:butt;stroke-linejoin:miter;stroke-opacity:1"
         d="m 610,552.36218 -320,0"
         id="path3807"
         inkscape:connector-curvature="0" />
      <path
         inkscape:connector-curvature="0"
         id="path3809"
         d="m 610,602.36218 -320,0"
         style="fill:none;stroke:#000000;stroke-width:1.01600099px;stroke-linecap:butt;stroke-linejoin:miter;stroke-opacity:1" />
      <path
         style="fill:none;stroke:#000000;stroke-width:1.01600099px;stroke-linecap:butt;stroke-linejoin:miter;stroke-opacity:1"
         d="m 610,652.36218 -320,0"
         id="path3811"
         inkscape:connector-curvature="0" />
      <path
         inkscape:connector-curvature="0"
         id="path3813"
         d="m 610,692.36218 -320,0"
         style="fill:none;stroke:#000000;stroke-width:1.01600099px;stroke-linecap:butt;stroke-linejoin:miter;stroke-opacity:1" />
    </g>
    <g
       style="fill:none;stroke:#cccccc;stroke-width:5;stroke-miterlimit:4;stroke-dasharray:none"
       transform="matrix(0.34317703,0,0,0.34317703,373.00877,-54.052702)"
       id="g3891"
       inkscape:export-filename="/home/daseeb/Bilder/lensfun.png"
       inkscape:export-xdpi="150"
       inkscape:export-ydpi="150">
      <path
         sodipodi:type="arc"
         style="fill:#000000;fill-opacity:1;stroke:#333333;stroke-width:1.16500974;stroke-miterlimit:4;stroke-opacity:1;stroke-dasharray:none"
         id="path2985"
         sodipodi:cx="245.97214"
         sodipodi:cy="248.28076"
         sodipodi:rx="108.5914"
         sodipodi:ry="109.09647"
         d="m 354.56354,248.28076 c 0,60.25232 -48.61803,109.09648 -108.5914,109.09648 -59.97338,0 -108.5914,-48.84416 -108.5914,-109.09648 0,-60.25232 48.61802,-109.09647 108.5914,-109.09647 59.97337,0 108.5914,48.84415 108.5914,109.09647 z"
         transform="matrix(1.2519889,0,0,1.2492347,191.42608,237.50026)" />
      <path
         transform="matrix(1.1974586,0,0,1.1919149,204.56848,251.79301)"
         d="m 354.56354,248.28076 c 0,60.25232 -48.61803,109.09648 -108.5914,109.09648 -59.97338,0 -108.5914,-48.84416 -108.5914,-109.09648 0,-60.25232 48.61802,-109.09647 108.5914,-109.09647 59.97337,0 108.5914,48.84415 108.5914,109.09647 z"
         sodipodi:ry="109.09647"
         sodipodi:rx="108.5914"
         sodipodi:cy="248.28076"
         sodipodi:cx="245.97214"
         id="path2991"
         style="fill:#4d4d4d;fill-opacity:1;stroke:none"
         sodipodi:type="arc" />
      <path
         transform="matrix(1.0263931,0,0,1.0216413,246.64586,294.06863)"
         d="m 354.56354,248.28076 c 0,60.25232 -48.61803,109.09648 -108.5914,109.09648 -59.97338,0 -108.5914,-48.84416 -108.5914,-109.09648 0,-60.25232 48.61802,-109.09647 108.5914,-109.09647 59.97337,0 108.5914,48.84415 108.5914,109.09647 z"
         sodipodi:ry="109.09647"
         sodipodi:rx="108.5914"
         sodipodi:cy="248.28076"
         sodipodi:cx="245.97214"
         id="path3773"
         style="fill:#25639e;fill-opacity:1;stroke:none"
         sodipodi:type="arc" />
      <path
         sodipodi:type="arc"
         style="fill:url(#radialGradient4064);fill-opacity:1;stroke:#333333"
         id="path2993"
         sodipodi:cx="245.97214"
         sodipodi:cy="248.28076"
         sodipodi:rx="108.5914"
         sodipodi:ry="109.09647"
         d="m 354.56354,248.28076 c 0,60.25232 -48.61803,109.09648 -108.5914,109.09648 -59.97338,0 -108.5914,-48.84416 -108.5914,-109.09648 0,-60.25232 48.61802,-109.09647 108.5914,-109.09647 59.97337,0 108.5914,48.84415 108.5914,109.09647 z"
         transform="matrix(1.0263931,0,0,1.0216413,246.64586,294.06863)" />
      <path
         transform="matrix(0.27262166,0.16494877,-0.21789806,0.36129379,459.56293,397.15015)"
         d="m 354.56354,248.28076 c 0,60.25232 -48.61803,109.09648 -108.5914,109.09648 -59.97338,0 -108.5914,-48.84416 -108.5914,-109.09648 0,-60.25232 48.61802,-109.09647 108.5914,-109.09647 59.97337,0 108.5914,48.84415 108.5914,109.09647 z"
         sodipodi:ry="109.09647"
         sodipodi:rx="108.5914"
         sodipodi:cy="248.28076"
         sodipodi:cx="245.97214"
         id="path2995"
         style="opacity:0.2921811;fill:#ecb3b3;fill-opacity:1;stroke:none;filter:url(#filter3992)"
         sodipodi:type="arc" />
      <g
         id="g4049"
         transform="matrix(1,0,0,1.0496709,-9.5664788,-28.13041)">
        <path
           sodipodi:nodetypes="ccccc"
           inkscape:connector-curvature="0"
           d="m 300.77593,382.92686 c 36.6185,65.08601 50,240 -10,340 120,-30 270,-50 350,20 80,-170 40,-360 40,-360 -10,-50 -220,60 -380,0 z"
           style="fill:none;stroke:#cccccc;stroke-width:5;stroke-linecap:butt;stroke-linejoin:miter;stroke-miterlimit:4;stroke-opacity:1;stroke-dasharray:none"
           id="path3878" />
        <path
           sodipodi:nodetypes="cc"
           inkscape:connector-curvature="0"
           id="path3881"
           d="m 376.84736,399.71257 c 0,0 35.89286,176.78571 -12.67857,306.78571"
           style="fill:none;stroke:#cccccc;stroke-width:5;stroke-linecap:butt;stroke-linejoin:miter;stroke-miterlimit:4;stroke-opacity:1;stroke-dasharray:none" />
        <path
           style="fill:none;stroke:#cccccc;stroke-width:5;stroke-linecap:butt;stroke-linejoin:miter;stroke-miterlimit:4;stroke-opacity:1;stroke-dasharray:none"
           d="m 441.31164,400.42686 c 0,0 37.14286,167.49999 -11.42857,297.49999"
           id="path3883"
           inkscape:connector-curvature="0"
           sodipodi:nodetypes="cc" />
        <path
           sodipodi:nodetypes="cc"
           inkscape:connector-curvature="0"
           id="path3885"
           d="m 625.65815,373.55246 c 27.88538,71.67219 0.90784,294.16404 -28.09651,342.23154"
           style="fill:none;stroke:#cccccc;stroke-width:5;stroke-linecap:butt;stroke-linejoin:miter;stroke-miterlimit:4;stroke-opacity:1;stroke-dasharray:none" />
        <path
           sodipodi:nodetypes="cc"
           inkscape:connector-curvature="0"
           id="path3887"
           d="m 569.88307,382.21256 c 0,0 19.46428,186.07144 -20.53572,318.92858"
           style="fill:none;stroke:#cccccc;stroke-width:5;stroke-linecap:butt;stroke-linejoin:miter;stroke-miterlimit:4;stroke-opacity:1;stroke-dasharray:none" />
        <path
           sodipodi:nodetypes="cc"
           inkscape:connector-curvature="0"
           id="path3889"
           d="m 505.59734,393.81972 c 0,0 22.14287,106.42856 -12.85714,301.42856"
           style="fill:none;stroke:#cccccc;stroke-width:5;stroke-linecap:butt;stroke-linejoin:miter;stroke-miterlimit:4;stroke-opacity:1;stroke-dasharray:none" />
        <path
           style="fill:none;stroke:#cccccc;stroke-width:5;stroke-linecap:butt;stroke-linejoin:miter;stroke-miterlimit:4;stroke-opacity:1;stroke-dasharray:none"
           d="m 315.60105,667.62693 c 0,0 214.25076,-65.55269 345.29145,22.04483"
           id="path3996"
           inkscape:connector-curvature="0"
           sodipodi:nodetypes="cc" />
        <path
           sodipodi:nodetypes="cc"
           inkscape:connector-curvature="0"
           id="path3998"
           d="m 327.56905,610.38866 c 0,0 253.79719,-56.18643 348.41353,21.00414"
           style="fill:none;stroke:#cccccc;stroke-width:5;stroke-linecap:butt;stroke-linejoin:miter;stroke-miterlimit:4;stroke-opacity:1;stroke-dasharray:none" />
        <path
           style="fill:none;stroke:#cccccc;stroke-width:5;stroke-linecap:butt;stroke-linejoin:miter;stroke-miterlimit:4;stroke-opacity:1;stroke-dasharray:none"
           d="m 332.77253,551.06901 c 0,0 243.39024,-42.65739 352.05597,20.48379"
           id="path4000"
           inkscape:connector-curvature="0"
           sodipodi:nodetypes="cc" />
        <path
           sodipodi:nodetypes="cc"
           inkscape:connector-curvature="0"
           id="path4002"
           d="M 321.0526,440.71818 C 459.22599,473.33013 588.8678,421.3429 688.47093,453.9542"
           style="fill:none;stroke:#cccccc;stroke-width:5;stroke-linecap:butt;stroke-linejoin:miter;stroke-miterlimit:4;stroke-opacity:1;stroke-dasharray:none" />
        <path
           sodipodi:nodetypes="cc"
           inkscape:connector-curvature="0"
           id="path4004"
           d="m 329.50825,497.56617 c 85.61826,-3.94248 285.8973,-28.35128 362.08477,13.62628"
           style="fill:none;stroke:#cccccc;stroke-width:5;stroke-linecap:butt;stroke-linejoin:miter;stroke-miterlimit:4;stroke-opacity:1;stroke-dasharray:none" />
      </g>
    </g>
    <g
       id="text3903"
       style="font-size:79.87895966px;font-style:italic;font-variant:normal;font-weight:normal;font-stretch:normal;line-height:125%;letter-spacing:1.66414499px;word-spacing:0px;fill:#cccccc;fill-opacity:1;stroke:none;font-family:Verdana;-inkscape-font-specification:Verdana Italic"
       transform="matrix(0.81419016,0,0,1.2282143,-244.04571,-21.111675)"
       inkscape:export-filename="/home/daseeb/Bilder/lensfun.png"
       inkscape:export-xdpi="150"
       inkscape:export-ydpi="150">
      <path
         inkscape:connector-curvature="0"
         id="path3908"
         style="font-style:normal;fill:#cccccc;stroke:none;font-family:Purisa;-inkscape-font-specification:Purisa"
         d="m 617.06263,73.731692 c 0.006,-0.08692 0.0186,-0.260866 0.0372,-0.521916 0.0245,-0.347864 0.0434,-0.608817 0.0558,-0.782897 0.0186,-0.260849 0.0372,-0.521821 0.0558,-0.78288 0.0245,-0.347866 0.0434,-0.608818 0.0558,-0.782899 0.0985,-0.259025 0.19416,-0.474655 0.28662,-0.646904 0.0985,-0.259042 0.23417,-0.473759 0.40667,-0.644161 0.17245,-0.170224 0.34183,-0.297047 0.50811,-0.380465 0.2463,-0.08141 0.4895,-0.119376 0.72965,-0.114035 1.60069,0.03671 2.88659,1.67801 3.8577,4.923913 0.8358,2.89449 0.89956,16.618807 0.19128,41.172982 -0.70889,25.68696 -0.8272,40.2784 -0.3549,43.77437 0.36798,2.70943 1.15878,5.79396 2.66709,6.0027 0.31391,0.0945 0.79103,0.14884 1.43134,0.16352 2.16094,0.0494 7.0282,-0.75408 14.60179,-2.41057 7.57972,-1.74345 17.16966,-3.41474 23.94293,-5.08952 6.85939,-1.75992 20.55036,-5.43756 20.79054,-5.43209 1.36055,0.0311 2.67489,0.0205 3.3947,1.16957 0.79971,1.151 0.33855,1.60416 0.28902,2.30004 -0.0436,0.60893 -0.17196,1.12453 -1.80417,2.65551 -2.72244,2.2031 -20.83325,6.39479 -33.40058,9.50536 -12.5674,3.11059 -24.6215,5.80934 -31.98476,5.64092 -3.36152,-0.0769 -5.516,-0.77965 -6.46341,-2.10824 -1.53197,-2.12615 -2.26121,-8.76465 -2.18774,-19.91554 0.0885,-4.61582 0.38939,-15.02086 0.90256,-31.2152 0.66992,-21.766943 1.33355,-37.260754 1.99091,-46.481525"
         sodipodi:nodetypes="ccccccccccccccccccccsscccc"
         inkscape:export-filename="/home/daseeb/Bilder/path3920.png"
         inkscape:export-xdpi="36.087364"
         inkscape:export-ydpi="36.087364" />
      <path
         inkscape:connector-curvature="0"
         id="path3910"
         style="font-style:normal;fill:#cccccc;stroke:#cccccc;stroke-width:2;stroke-miterlimit:4;stroke-opacity:1;stroke-dasharray:none;font-family:Purisa;-inkscape-font-specification:Purisa"
         d="m 673.23197,136.60693 c 0.21661,1e-5 0.32494,0.17334 0.32498,0.51996 -4e-5,0.77995 -0.585,2.03652 -1.75487,3.76971 -1.12662,1.73321 -2.33986,3.1631 -3.63972,4.28967 -4.54968,4.0297 -9.09933,6.04454 -13.64896,6.04454 -1.73321,0 -3.46642,-0.38997 -5.19959,-1.16991 -1.68989,-0.82327 -3.27143,-1.97152 -4.74465,-3.44474 -1.47323,-1.47322 -2.66479,-3.44473 -3.57472,-5.91455 -0.90993,-2.46979 -1.3649,-5.22125 -1.3649,-8.25437 0,-1.86316 0.21665,-3.4447 0.64995,-4.74463 0.8666,-2.64311 2.70812,-5.43789 5.52458,-8.38436 2.85977,-2.9464 5.54623,-4.41963 8.05938,-4.41966 0.69326,3e-5 1.73318,0.065 3.11976,0.19498 2.07982,0.17336 3.53137,0.39001 4.35467,0.64995 0.86657,0.26002 1.8415,0.80165 2.92478,1.62488 1.38652,1.03995 2.5781,2.38318 3.57472,4.02969 1.03989,1.60324 1.55985,2.94647 1.55988,4.0297 -3e-5,1.38658 -0.54165,2.44816 -1.62487,3.18475 -1.08328,0.6933 -3.18478,1.38659 -6.30452,2.07984 -4.02971,0.90995 -8.01607,1.47324 -11.95909,1.68988 l -6.04453,0.32497 0,2.5998 c -10e-6,3.20643 1.49487,6.23953 4.48466,9.0993 2.25314,2.16651 4.59296,3.24975 7.01946,3.24975 1.86317,0 3.83469,-0.56328 5.91455,-1.68987 2.12314,-1.16991 3.92133,-2.44814 5.39458,-3.8347 1.4732,-1.38655 2.88141,-2.64313 4.22468,-3.76972 1.34319,-1.1699 2.25312,-1.75485 2.72979,-1.75486 m -10.4642,-15.85879 c -1.34325,-1.2132 -2.36151,-1.97148 -3.05476,-2.27482 -0.64998,-0.34661 -1.51658,-0.51993 -2.59981,-0.51996 -2.16651,3e-5 -3.79139,0.21668 -4.87462,0.64995 -1.03994,0.39 -2.10152,1.21327 -3.18476,2.46981 -3.29309,3.76974 -4.93963,6.28287 -4.93962,7.53942 -10e-6,0.56331 0.51995,0.84496 1.55988,0.84493 3.94302,3e-5 9.53258,-0.82324 16.76872,-2.46981 2.16647,-0.51993 3.24972,-1.42986 3.24974,-2.72978 -2e-5,-0.6066 -0.97495,-1.77651 -2.92477,-3.50974"
         inkscape:export-filename="/home/daseeb/Bilder/path3920.png"
         inkscape:export-xdpi="36.087364"
         inkscape:export-ydpi="36.087364" />
      <path
         inkscape:connector-curvature="0"
         id="path3912"
         style="font-style:normal;fill:#cccccc;stroke:#cccccc;stroke-width:2;stroke-miterlimit:4;stroke-opacity:1;stroke-dasharray:none;font-family:Purisa;-inkscape-font-specification:Purisa"
         d="m 685.38986,108.00154 c -10e-6,-1.47319 0.43329,-2.20979 1.2999,-2.20983 0.56328,4e-5 0.97491,0.64999 1.2349,1.94985 0.25997,1.25661 0.7366,5.02631 1.4299,11.30913 0.86659,7.01949 1.32155,10.57254 1.36489,10.65919 0.0433,0.0434 0.21663,-0.36829 0.51996,-1.23491 0.34663,-0.90991 0.80159,-2.25314 1.3649,-4.02969 0.86658,-2.85975 1.60319,-4.91793 2.20983,-6.17453 0.6066,-1.29987 1.68985,-3.0764 3.24975,-5.32959 3.16306,-4.3763 5.61121,-6.56446 7.34444,-6.5645 1.12654,4e-5 2.18813,0.75832 3.18475,2.27483 1.3432,1.99322 2.16647,3.96473 2.46981,5.91455 0.30328,1.94987 0.51993,6.56451 0.64995,13.84394 0.0866,4.67965 0.12996,7.45277 0.13,8.31936 -4e-5,2.1665 -0.0867,3.74805 -0.25999,4.74464 -0.13002,0.95326 -0.34667,1.53821 -0.64995,1.75486 -0.26001,0.25998 -0.73664,0.41164 -1.42988,0.45497 -0.39001,-1e-5 -0.64999,-0.17333 -0.77995,-0.51996 -0.13002,-0.30331 -0.19502,-1.03992 -0.19498,-2.20983 -4e-5,-0.64995 0.0433,-2.03651 0.12999,-4.15968 0.0866,-2.1665 0.12996,-3.98635 0.12999,-5.45959 -3e-5,-3.68303 -0.15169,-7.27942 -0.45497,-10.78917 -0.26001,-3.55304 -0.58498,-5.82786 -0.97492,-6.82447 -0.21668,-0.56327 -0.56332,-1.14822 -1.03992,-1.75488 -0.47666,-0.60658 -0.93163,-0.90989 -1.3649,-0.90992 -0.90996,3e-5 -2.36151,1.55991 -4.35466,4.67964 -1.99321,3.07645 -3.70474,6.3262 -5.13461,9.74925 -1.34325,3.11977 -2.25318,5.52459 -2.7298,7.21445 -0.43331,1.64655 -0.80162,2.27133 -1.10491,5.1311 -0.47664,4.41966 -0.82328,6.62949 -1.03992,6.6295 -0.34665,-1e-5 -0.84494,-0.36831 -1.49489,-1.10492 -0.47664,-0.47664 -0.80161,-1.49489 -0.97492,-3.05477 -0.17333,-1.6032 -0.41164,-3.11625 -0.71495,-7.7959 -0.30331,-4.72295 -0.71495,-9.48925 -1.2349,-14.2989 -0.51997,-4.98292 -0.77995,-8.38432 -0.77994,-10.20422"
         sodipodi:nodetypes="ccccccccccccccccccccccccccccccccccc"
         inkscape:export-filename="/home/daseeb/Bilder/path3920.png"
         inkscape:export-xdpi="36.087364"
         inkscape:export-ydpi="36.087364" />
      <path
         inkscape:connector-curvature="0"
         id="path3914"
         style="font-style:normal;fill:#cccccc;stroke:#cccccc;stroke-width:2;stroke-miterlimit:4;stroke-opacity:1;stroke-dasharray:none;font-family:Purisa;-inkscape-font-specification:Purisa"
         d="m 735.07467,126.13706 c -0.64997,2e-5 -2.03652,-0.77993 -4.15969,-2.33982 -2.12317,-1.6032 -3.18475,-3.22807 -3.18475,-4.87463 0,-1.55986 1.10491,-3.70469 3.31474,-6.4345 2.20982,-2.77309 4.87462,-4.54963 7.99439,-5.3296 1.38655,-0.38994 3.27141,-0.58492 5.65457,-0.58496 0.99657,4e-5 1.73318,0.13003 2.20983,0.38998 0.47661,0.26001 1.12656,0.84496 1.94986,1.75486 1.3432,1.51658 2.01481,2.5565 2.01483,3.11976 -2e-5,0.51999 -0.28166,0.77997 -0.84493,0.77994 -0.69331,3e-5 -1.27826,-0.23828 -1.75486,-0.71494 -0.47665,-0.51993 -1.06161,-1.03989 -1.75487,-1.55988 -0.6933,-0.51993 -1.6249,-0.77991 -2.79478,-0.77995 -1.51658,4e-5 -3.14145,0.41167 -4.87463,1.23491 -1.73322,0.8233 -3.27143,1.97154 -4.61465,3.44474 -1.90653,2.03653 -2.85978,3.4231 -2.85978,4.15968 0,0.73663 0.56328,1.62489 1.68987,2.6648 1.12658,0.9966 3.01142,1.94986 5.65457,2.85977 4.15966,1.42991 6.97611,2.77314 8.44935,4.0297 1.4732,1.25658 2.20981,2.94645 2.20983,5.06961 -2e-5,1.99319 -0.34666,3.81305 -1.03991,5.45958 -0.47666,1.25658 -1.49492,2.6648 -3.05478,4.22468 -1.5599,1.55987 -3.09811,2.33982 -4.61464,2.33982 -1.16992,0 -2.68647,-0.19499 -4.54965,-0.58495 -1.86321,-0.34665 -3.27142,-0.75828 -4.22468,-1.23491 -0.77995,-0.38997 -1.49489,-1.14825 -2.14484,-2.27483 -0.64995,-1.16991 -0.97493,-2.20982 -0.97492,-3.11976 -10e-6,-0.47662 0.10832,-0.88826 0.32497,-1.2349 0.25998,-0.38997 0.56329,-0.58495 0.90994,-0.58496 0.64994,1e-5 1.25656,0.60662 1.81986,1.81986 0.51995,1.08325 1.55986,2.05818 3.11976,2.92477 1.60319,0.86661 3.09808,1.29991 4.48466,1.29991 1.86317,0 3.50971,-1.10492 4.93962,-3.31474 1.42987,-2.25316 2.14481,-4.00802 2.14483,-5.26461 -2e-5,-0.3033 -0.0867,-0.6716 -0.25998,-1.10491 -0.13001,-0.47662 -0.49831,-1.03991 -1.10491,-1.68987 -0.60665,-0.64994 -1.38658,-1.14823 -2.33983,-1.49489 -0.90994,-0.30329 -1.97153,-0.71493 -3.18475,-1.2349 -1.21326,-0.51995 -2.23151,-0.95325 -3.05477,-1.2999 -0.77995,-0.34663 -1.27824,-0.51994 -1.49488,-0.51996"
         inkscape:export-filename="/home/daseeb/Bilder/path3920.png"
         inkscape:export-xdpi="36.087364"
         inkscape:export-ydpi="36.087364" />
      <path
         inkscape:connector-curvature="0"
         id="path3916"
         style="font-style:normal;fill:#cccccc;stroke:#cccccc;stroke-width:2;stroke-miterlimit:4;stroke-opacity:1;stroke-dasharray:none;font-family:Purisa;-inkscape-font-specification:Purisa"
         d="m 770.50884,116.72837 c -0.51997,2e-5 -1.62488,0.24203 -3.31474,0.72596 -1.64655,0.44 -2.96811,0.65999 -3.9647,0.65997 -1.90652,2e-5 -2.85978,-0.61595 -2.85978,-1.84791 0,-0.48394 0.34664,-0.92393 1.03992,-1.31994 0.73661,-0.39595 2.14483,-0.90191 4.22468,-1.51793 l 5.2646,-1.5839 0.12998,-5.74173 c 0.0867,-4.09177 0.38996,-8.601539 0.90994,-13.529359 0.38995,-3.651775 0.73659,-5.961667 1.03991,-6.929673 0.3033,-0.967891 0.97492,-1.979843 2.01485,-3.035855 0.86658,-0.879885 1.55986,-1.45187 2.07985,-1.715922 0.56327,-0.263914 1.3432,-0.395915 2.33981,-0.39598 0.73659,6.5e-5 2.29647,0.110024 4.67965,0.329983 1.81983,0.176062 3.11973,0.440049 3.8997,0.791969 0.77991,0.308046 1.66817,0.968021 2.66479,1.979892 1.47319,1.496012 2.2098,2.859932 2.20983,4.091819 -3e-5,0.880007 -0.34667,1.803977 -1.03992,2.771877 -0.64998,0.92401 -1.14828,1.38598 -1.49488,1.38591 -0.52,7e-5 -0.77997,-0.7479 -0.77994,-2.243875 -3e-5,-1.407883 -0.39001,-2.485832 -1.16991,-3.233854 -0.73665,-0.791895 -2.1882,-1.539868 -4.35467,-2.243887 -1.42991,-0.439919 -2.53483,-0.65991 -3.31474,-0.659975 -1.86322,6.5e-5 -3.31477,1.100015 -4.35467,3.299842 -0.38999,0.880024 -0.7583,3.409899 -1.10491,7.589649 -0.30334,4.13584 -0.45499,7.941659 -0.45498,11.417439 -10e-6,2.50792 0.0866,4.09185 0.25999,4.75177 0.21663,0.61602 0.75826,0.92399 1.62487,0.92397 0.51994,2e-5 1.60319,-0.15397 3.24975,-0.46199 1.64652,-0.30794 3.01142,-0.46194 4.09469,-0.46198 0.60659,4e-5 1.10489,0.11002 1.49488,0.32998 0.38995,0.17604 0.58494,0.39602 0.58496,0.65998 -2e-5,0.748 -1.86322,1.69396 -5.58957,2.83786 l -5.58957,1.64992 -0.19499,10.49351 c -2e-5,0.52798 -0.0217,1.25395 -0.065,2.17788 -3e-5,0.87999 -3e-5,1.49595 0,1.84791 -3e-5,3.29986 0.15163,5.85174 0.45496,7.65564 0.30329,1.80391 0.6066,3.10186 0.90993,3.89381 0.30329,0.79196 0.45494,1.64992 0.45497,2.57388 -3e-5,1.31994 -0.60664,1.9799 -1.81986,1.9799 -2.29651,0 -3.44476,-6.13771 -3.44474,-18.41311 -2e-5,-7.34763 -0.13001,-11.15344 -0.38997,-11.41745 -0.0434,-0.044 -0.15167,-0.0659 -0.32498,-0.066"
         inkscape:export-filename="/home/daseeb/Bilder/path3920.png"
         inkscape:export-xdpi="36.087364"
         inkscape:export-ydpi="36.087364" />
      <path
         inkscape:connector-curvature="0"
         id="path3918"
         style="font-style:normal;fill:#cccccc;stroke:#cccccc;stroke-width:2;stroke-miterlimit:4;stroke-opacity:1;stroke-dasharray:none;font-family:Purisa;-inkscape-font-specification:Purisa"
         d="m 799.40499,119.87106 c -10e-6,-8.10269 0.60662,-12.15403 1.81986,-12.15407 0.21665,4e-5 0.4333,0.0434 0.64995,0.12999 0.25998,0.0867 0.56329,0.41167 0.90994,0.97493 0.34663,0.51999 0.51995,1.2566 0.51996,2.20983 -10e-6,0.43333 -0.0434,1.16994 -0.13,2.20983 -0.0867,0.99661 -0.13,2.1232 -0.12999,3.37974 -10e-6,3.50975 0.19498,7.77775 0.58496,12.80402 0.38996,5.02629 0.80159,8.31937 1.2349,9.87924 0.4333,1.68987 1.1699,2.53481 2.20984,2.53481 0.99657,0 2.51312,-0.88827 4.54965,-2.6648 2.51312,-2.20983 4.91793,-5.65456 7.21445,-10.3342 2.33979,-4.67963 3.96466,-9.35927 4.87462,-14.03893 0.86657,-4.59295 1.58152,-7.04109 2.14484,-7.34444 0.43326,-0.30328 0.88823,-0.45493 1.3649,-0.45496 1.03988,3e-5 1.55984,0.60665 1.55987,1.81986 -3e-5,0.60665 -0.32501,3.14145 -0.97492,7.60442 -0.60665,4.463 -0.90996,7.66943 -0.90993,9.61926 -3e-5,2.7298 0.54159,6.1312 1.62487,10.20422 1.12655,4.02969 1.68984,6.32618 1.68988,6.88947 -4e-5,0.4333 -0.17336,0.77994 -0.51996,1.03992 -0.34668,0.25997 -0.64999,0.41163 -0.90994,0.45496 -0.21668,0.0867 -0.39,0.12999 -0.51996,0.12999 -0.77997,0 -1.55991,-1.10491 -2.33981,-3.31475 -0.73665,-2.20982 -1.40826,-4.41965 -2.01485,-6.62948 -0.56332,-2.20982 -1.06162,-3.31474 -1.49489,-3.31475 -0.0867,1e-5 -0.17334,0.0216 -0.25998,0.065 -0.0867,0.0434 -0.19501,0.13 -0.32498,0.25998 -0.0867,0.0867 -0.17334,0.195 -0.25997,0.32497 -0.0867,0.13 -0.21668,0.30332 -0.38998,0.51997 -0.13001,0.21666 -0.26,0.41164 -0.38996,0.58495 -0.0867,0.17333 -0.23834,0.43331 -0.45497,0.77994 -0.21668,0.34665 -0.39,0.6283 -0.51996,0.84494 -1.90654,2.98977 -4.02971,5.48125 -6.36951,7.47442 -2.29651,1.99318 -4.24636,2.98977 -5.84955,2.98977 -1.81988,0 -3.18477,-0.41163 -4.09469,-1.2349 -0.90994,-0.77994 -1.64655,-2.20983 -2.20983,-4.28967 -0.51997,-2.07984 -0.9966,-5.37292 -1.42989,-9.87924 -0.30332,-2.85977 -0.45498,-6.21784 -0.45497,-10.07423"
         inkscape:export-filename="/home/daseeb/Bilder/path3920.png"
         inkscape:export-xdpi="36.087364"
         inkscape:export-ydpi="36.087364" />
      <path
         inkscape:connector-curvature="0"
         id="path3920"
         style="font-style:normal;fill:#cccccc;stroke:#cccccc;stroke-width:2;stroke-miterlimit:4;stroke-opacity:1;stroke-dasharray:none;font-family:Purisa;-inkscape-font-specification:Purisa"
         d="m 848.02022,107.587 c -10e-6,-1.47319 0.43329,-2.20979 1.2999,-2.20983 0.56328,4e-5 0.97492,0.64999 1.23491,1.94985 0.25996,1.25661 0.73659,5.02631 1.42988,11.30913 0.86659,7.01949 1.32155,10.57254 1.3649,10.65919 0.0433,0.0434 0.21664,-0.36829 0.51996,-1.23491 0.34663,-0.90991 0.80159,-2.25314 1.36489,-4.02969 0.86659,-2.85975 1.6032,-4.91793 2.20984,-6.17453 0.6066,-1.29987 1.68985,-3.0764 3.24974,-5.32959 3.16308,-4.3763 5.61122,-6.56446 7.34445,-6.5645 1.12655,4e-5 2.18813,0.75832 3.18476,2.27483 1.34319,1.99322 2.16646,3.96473 2.46981,5.91455 0.30327,1.94987 0.51992,6.56451 0.64995,13.84394 0.0866,4.67965 0.12995,7.45277 0.12998,8.31936 -3e-5,2.1665 -0.0867,3.74805 -0.25998,4.74464 -0.13002,0.95326 -0.34667,1.53821 -0.64995,1.75486 -0.26001,0.25999 -0.73664,0.41164 -1.42989,0.45497 -0.39,-1e-5 -0.64998,-0.17333 -0.77994,-0.51996 -0.13002,-0.30331 -0.19501,-1.03992 -0.19498,-2.20983 -3e-5,-0.64995 0.0433,-2.03651 0.12998,-4.15968 0.0866,-2.1665 0.12996,-3.98635 0.12999,-5.45959 -3e-5,-3.68303 -0.15168,-7.27942 -0.45496,-10.78917 -0.26001,-3.55304 -0.58499,-5.82786 -0.97492,-6.82447 -0.21668,-0.56327 -0.56333,-1.14822 -1.03993,-1.75488 -0.47665,-0.60658 -0.93161,-0.90989 -1.36489,-0.90992 -0.90995,3e-5 -2.36151,1.55991 -4.35467,4.67964 -1.9932,3.07645 -3.70473,6.3262 -5.1346,9.74925 -1.34325,3.11977 -2.25318,5.52459 -2.72979,7.21445 -0.43332,1.64655 -0.80162,3.89971 -1.10492,6.75948 -0.47664,4.41966 -0.82328,6.62949 -1.03992,6.6295 -0.34665,-1e-5 -0.84495,-0.36831 -1.49488,-1.10492 -0.47665,-0.47664 -0.80162,-1.49488 -0.97493,-3.05477 -0.17333,-1.6032 -0.41165,-4.74462 -0.71495,-9.42428 -0.30332,-4.72295 -0.71495,-9.48925 -1.23491,-14.2989 -0.51996,-4.98292 -0.77994,-8.38432 -0.77993,-10.20422"
         inkscape:export-filename="/home/daseeb/Bilder/path3920.png"
         inkscape:export-xdpi="36.087364"
         inkscape:export-ydpi="36.087364" />
    </g>
  </g>
</svg>
